<?xml version="1.0" encoding="utf-8"?>
<!-- Generator: Adobe Illustrator 24.0.1, SVG Export Plug-In . SVG Version: 6.00 Build 0)  -->
<svg version="1.1" id="Vrstva_1" xmlns="http://www.w3.org/2000/svg" xmlns:xlink="http://www.w3.org/1999/xlink" x="0px" y="0px"
	 viewBox="0 0 283.46 283.46" style="enable-background:new 0 0 283.46 283.46;" xml:space="preserve">
<style type="text/css">
	.st0{fill:#F02137;}
</style>
<g>
	<path class="st0" d="M214.74,71.81c-0.26-2.59-0.95-4.74-2.07-6.55s-2.67-3.19-4.65-4.14c-1.9-0.95-4.31-1.46-7.15-1.46
		c-2.33,0-4.48,0.43-6.38,1.21c-1.9,0.69-3.53,1.81-4.91,3.19c-1.38,1.46-2.41,3.1-3.1,5.08c-0.69,1.98-1.12,4.14-1.12,6.55
		c0,1.81,0.26,3.53,0.69,5.17c0.43,1.55,1.12,3.02,1.98,4.39c0.78,1.29,1.9,2.41,3.1,3.45c1.29,0.95,2.76,1.72,4.31,2.24
		c1.64,0.52,3.45,0.78,5.43,0.78c1.81,0,3.45-0.26,4.91-0.69c1.46-0.52,2.76-1.21,3.88-1.98c1.12-0.86,2.07-1.81,2.84-2.93
		c0.78-1.03,1.38-2.24,1.72-3.45c0.43-1.21,0.6-2.41,0.6-3.71h-9.22c-0.17,1.03-0.52,1.9-0.86,2.67c-0.34,0.69-0.86,1.38-1.55,1.81
		c-0.69,0.43-1.55,0.6-2.59,0.6c-1.12,0-1.98-0.26-2.76-0.69c-0.78-0.52-1.38-1.12-1.81-1.9c-0.43-0.86-0.78-1.72-0.95-2.76
		c-0.17-0.95-0.26-1.98-0.26-3.02c0-1.03,0.09-2.07,0.26-3.02c0.17-1.03,0.52-1.9,0.95-2.76c0.43-0.78,1.03-1.38,1.81-1.9
		c0.78-0.43,1.64-0.69,2.76-0.69c0.78,0,1.46,0.09,1.98,0.34c0.6,0.17,1.03,0.52,1.38,0.86c0.34,0.34,0.69,0.78,0.86,1.21
		c0.26,0.43,0.43,0.78,0.52,1.12c0.09,0.43,0.17,0.69,0.17,0.95H214.74z"/>
	<polygon class="st0" points="157.01,91.02 182.77,91.02 182.77,83.18 166.4,83.18 166.4,79.3 180.88,79.3 180.88,72.06 
		166.4,72.06 166.4,68.27 182.34,68.27 182.34,60.43 157.01,60.43 	"/>
	<polygon class="st0" points="124.52,91.02 133.48,91.02 133.48,74.3 133.57,74.3 142.96,91.02 152.1,91.02 152.1,60.43 
		143.22,60.43 143.22,76.72 143.14,76.72 134.17,60.43 124.52,60.43 	"/>
	<path class="st0" d="M89.97,75.68c0,2.33,0.34,4.48,1.12,6.46c0.69,1.9,1.72,3.62,3.1,5.08c1.38,1.38,3.02,2.5,4.91,3.27
		c1.9,0.78,4.05,1.21,6.38,1.21c2.33,0,4.39-0.43,6.29-1.21c1.9-0.78,3.53-1.9,4.91-3.27c1.38-1.46,2.41-3.19,3.19-5.08
		c0.69-1.98,1.12-4.14,1.12-6.46c0-2.33-0.43-4.48-1.12-6.46c-0.78-1.9-1.81-3.62-3.19-5.08c-1.38-1.38-3.02-2.5-4.91-3.27
		c-1.9-0.78-3.96-1.21-6.29-1.21c-2.33,0-4.48,0.43-6.38,1.21c-1.9,0.78-3.53,1.9-4.91,3.27c-1.38,1.46-2.41,3.19-3.1,5.08
		C90.31,71.2,89.97,73.36,89.97,75.68L89.97,75.68z M99.36,75.68c0-1.38,0.17-2.5,0.43-3.45c0.26-1.03,0.6-1.81,1.03-2.41
		c0.43-0.69,0.95-1.21,1.46-1.55s1.03-0.6,1.64-0.78c0.52-0.17,1.03-0.17,1.55-0.17c0.43,0,0.95,0,1.55,0.17
		c0.52,0.17,1.03,0.43,1.64,0.78c0.52,0.34,1.03,0.86,1.46,1.55c0.43,0.6,0.78,1.38,1.03,2.41c0.26,0.95,0.34,2.07,0.34,3.45
		c0,1.38-0.09,2.5-0.34,3.53c-0.26,0.95-0.6,1.72-1.03,2.33c-0.43,0.69-0.95,1.21-1.46,1.55c-0.6,0.34-1.12,0.6-1.64,0.78
		c-0.6,0.17-1.12,0.26-1.55,0.17c-0.52,0.09-1.03,0-1.55-0.17c-0.6-0.17-1.12-0.43-1.64-0.78c-0.52-0.34-1.03-0.86-1.46-1.55
		c-0.43-0.6-0.78-1.38-1.03-2.33C99.53,78.18,99.36,77.06,99.36,75.68L99.36,75.68z"/>
	<polygon class="st0" points="59.98,91.02 69.46,91.02 69.46,81.97 72.05,79.04 79.63,91.02 91.35,91.02 78.42,72.32 89.54,60.43 
		77.91,60.43 69.55,70.94 69.46,70.94 69.46,60.43 59.98,60.43 	"/>
	<polygon points="195.35,223.12 221.12,223.12 221.12,215.28 204.75,215.28 204.75,211.4 219.22,211.4 219.22,204.16 204.75,204.16 
		204.75,200.37 220.69,200.37 220.69,192.53 195.35,192.53 	"/>
	<path d="M192.25,203.9c-0.26-2.59-0.95-4.74-2.07-6.55c-1.03-1.81-2.59-3.19-4.57-4.14c-1.98-0.95-4.31-1.46-7.15-1.46
		c-2.41,0-4.48,0.43-6.38,1.21c-1.9,0.69-3.53,1.81-4.91,3.19c-1.38,1.46-2.41,3.1-3.1,5.08c-0.78,1.98-1.12,4.14-1.12,6.55
		c0,1.81,0.26,3.53,0.69,5.17c0.43,1.55,1.03,3.1,1.9,4.39c0.86,1.29,1.9,2.5,3.19,3.45c1.21,0.95,2.67,1.72,4.31,2.24
		c1.64,0.52,3.45,0.78,5.43,0.78c1.81,0,3.45-0.26,4.91-0.69c1.46-0.52,2.76-1.21,3.88-1.98c1.12-0.86,2.07-1.81,2.84-2.93
		c0.78-1.03,1.38-2.24,1.72-3.45c0.43-1.21,0.6-2.41,0.6-3.71h-9.22c-0.26,1.03-0.52,1.9-0.86,2.67c-0.43,0.78-0.95,1.38-1.55,1.81
		c-0.69,0.43-1.55,0.6-2.59,0.69c-1.12-0.09-2.07-0.26-2.76-0.78c-0.78-0.52-1.38-1.12-1.81-1.9c-0.43-0.86-0.78-1.72-0.95-2.67
		c-0.26-1.03-0.34-2.07-0.34-3.1c0-1.03,0.09-2.07,0.34-3.02c0.17-1.03,0.52-1.9,0.95-2.67c0.43-0.86,1.03-1.46,1.81-1.98
		c0.69-0.43,1.64-0.69,2.76-0.69c0.78,0,1.46,0.09,1.98,0.34c0.52,0.26,1.03,0.52,1.38,0.86c0.34,0.43,0.6,0.78,0.86,1.21
		c0.17,0.43,0.34,0.78,0.52,1.12c0.09,0.43,0.17,0.69,0.17,0.95H192.25z"/>
	<path d="M132.36,223.12h9.48l1.38-4.39h9.74l1.29,4.39h9.74l-11.12-30.59h-9.22L132.36,223.12z M145.29,212.18l2.93-9.48h0.09
		l2.76,9.48H145.29z"/>
	<polygon points="102.72,223.12 111.6,223.12 111.6,206.4 111.68,206.4 121.08,223.12 130.21,223.12 130.21,192.53 121.34,192.53 
		121.34,208.9 121.25,208.9 112.29,192.53 102.72,192.53 	"/>
	<rect x="88.42" y="192.53" width="9.39" height="30.59"/>
	<polygon points="66.96,223.12 76.35,223.12 76.35,200.37 84.89,200.37 84.89,192.53 58.35,192.53 58.35,200.37 66.96,200.37 	"/>
	<path d="M153.82,168.75c0,1.38,0.26,2.67,0.6,3.71c0.34,1.03,0.86,1.98,1.46,2.76c0.69,0.78,1.38,1.46,2.15,1.98
		c0.78,0.52,1.64,0.95,2.5,1.29s1.72,0.6,2.59,0.86c0.86,0.17,1.64,0.26,2.33,0.34s1.29,0.09,1.81,0.09c1.38,0,2.76-0.09,4.14-0.34
		c1.38-0.17,2.59-0.6,3.79-1.03c1.21-0.52,2.33-1.21,3.27-1.98c0.86-0.86,1.64-1.81,2.15-3.02s0.78-2.59,0.78-4.14
		c0-1.46-0.26-2.59-0.69-3.62c-0.52-0.95-1.12-1.81-1.98-2.5c-0.78-0.6-1.72-1.21-2.76-1.64c-1.03-0.43-2.07-0.78-3.19-1.12
		c-1.03-0.26-2.07-0.52-3.1-0.78c-1.03-0.17-1.98-0.43-2.84-0.78c-0.86-0.26-1.55-0.52-2.07-0.95c-0.52-0.34-0.78-0.78-0.78-1.29
		c0-0.43,0.09-0.78,0.34-1.12c0.17-0.26,0.43-0.43,0.86-0.6c0.34-0.17,0.69-0.26,1.03-0.26c0.43-0.09,0.78-0.09,1.12-0.09
		c0.52,0,0.95,0,1.46,0.17c0.43,0.09,0.86,0.26,1.29,0.6c0.43,0.26,0.69,0.52,0.95,0.95c0.17,0.43,0.26,0.86,0.17,1.46h8.88
		c0-1.46-0.26-2.76-0.78-3.88c-0.43-1.12-1.03-2.07-1.9-2.84c-0.78-0.78-1.72-1.38-2.76-1.9c-1.03-0.43-2.24-0.78-3.45-1.03
		s-2.5-0.34-3.88-0.34c-1.21,0-2.5,0.17-3.71,0.34c-1.21,0.26-2.33,0.69-3.36,1.21c-1.03,0.52-1.9,1.21-2.76,1.98
		c-0.78,0.78-1.38,1.72-1.81,2.84c-0.43,1.12-0.69,2.33-0.69,3.79c0,1.21,0.26,2.24,0.6,3.1c0.43,0.86,0.95,1.64,1.64,2.24
		c0.69,0.6,1.55,1.12,2.41,1.55s1.81,0.78,2.76,1.03c1.03,0.34,1.98,0.6,2.93,0.86c1.38,0.43,2.41,0.69,3.27,1.03
		c0.86,0.26,1.55,0.52,2.07,0.78c0.43,0.17,0.78,0.43,1.03,0.78c0.17,0.26,0.26,0.6,0.26,0.95c0,0.6-0.17,1.03-0.43,1.38
		c-0.17,0.43-0.52,0.69-0.95,0.86c-0.43,0.26-0.78,0.34-1.29,0.43c-0.43,0.09-0.86,0.09-1.21,0.09c-0.6,0.09-1.21,0-1.81-0.17
		c-0.6-0.09-1.12-0.26-1.64-0.6s-0.86-0.78-1.03-1.38c-0.17-0.34-0.26-0.69-0.26-0.95c-0.09-0.34-0.09-0.78-0.09-1.12H153.82z"/>
	<path d="M122.02,179.09h9.48l1.38-4.39h9.74l1.29,4.39h9.74l-11.12-30.59h-9.22L122.02,179.09z M134.95,168.14l2.93-9.48h0.09
		l2.76,9.48H134.95z"/>
	<path d="M93.07,179.09h9.48V168.4h5c0.86,0,1.64,0.17,2.15,0.52c0.6,0.34,1.03,0.78,1.29,1.38c0.26,0.52,0.43,1.21,0.52,1.9
		c0.17,0.69,0.26,1.38,0.26,2.15c0.09,0.78,0.17,1.55,0.26,2.33c0.09,0.86,0.26,1.64,0.52,2.41h9.39c-0.17-0.34-0.26-0.69-0.43-1.12
		c-0.09-0.43-0.17-0.86-0.26-1.38c-0.09-0.52-0.09-1.03-0.17-1.55c0-0.52-0.09-0.95-0.09-1.46c0-0.43,0-0.78-0.09-1.03
		c-0.09-1.29-0.34-2.5-0.69-3.53c-0.43-0.95-0.95-1.9-1.55-2.59c-0.6-0.69-1.38-1.21-2.24-1.55c0.78-0.26,1.46-0.69,2.07-1.21
		c0.6-0.6,1.03-1.21,1.38-1.9c0.43-0.69,0.69-1.38,0.86-2.15c0.17-0.78,0.26-1.64,0.26-2.41c0-1.46-0.26-2.67-0.78-3.79
		c-0.52-1.12-1.29-1.98-2.15-2.76c-0.95-0.69-1.98-1.29-3.19-1.64c-1.21-0.34-2.5-0.52-3.79-0.52H93.07V179.09z M102.55,155.73h4.39
		c1.21,0,2.15,0.17,2.76,0.34c0.69,0.26,1.21,0.6,1.46,1.03c0.34,0.52,0.43,1.03,0.43,1.64c0,0.69-0.17,1.29-0.43,1.64
		c-0.26,0.43-0.6,0.78-0.95,0.95c-0.43,0.17-0.86,0.34-1.38,0.43c-0.52,0-0.95,0.09-1.38,0.09h-4.91V155.73z"/>
	<polygon points="59.98,179.09 69.46,179.09 69.46,170.04 72.05,167.11 79.63,179.09 91.35,179.09 78.42,160.39 89.54,148.5 
		77.91,148.5 69.55,159.01 69.46,159.01 69.46,148.5 59.98,148.5 	"/>
	<path d="M120.47,119.72c0,2.33,0.34,4.48,1.12,6.46c0.69,1.98,1.72,3.62,3.1,5.08c1.38,1.38,3.02,2.5,4.91,3.27
		c1.9,0.78,4.05,1.21,6.38,1.21c2.33,0,4.39-0.43,6.29-1.21c1.9-0.78,3.53-1.9,4.91-3.27c1.38-1.46,2.41-3.1,3.19-5.08
		c0.69-1.98,1.03-4.14,1.12-6.46c-0.09-2.33-0.43-4.48-1.12-6.46c-0.78-1.9-1.81-3.62-3.19-5.08c-1.38-1.38-3.02-2.5-4.91-3.27
		c-1.9-0.78-3.96-1.21-6.29-1.21c-2.33,0-4.48,0.43-6.38,1.21c-1.9,0.78-3.53,1.9-4.91,3.27c-1.38,1.46-2.41,3.19-3.1,5.08
		C120.82,115.24,120.47,117.39,120.47,119.72L120.47,119.72z M129.87,119.72c0-1.38,0.17-2.5,0.43-3.45
		c0.26-1.03,0.6-1.81,1.03-2.41c0.43-0.69,0.95-1.21,1.46-1.55c0.52-0.34,1.03-0.6,1.64-0.78c0.52-0.17,1.03-0.17,1.55-0.17
		c0.43,0,0.95,0,1.55,0.17c0.52,0.17,1.03,0.43,1.55,0.78c0.6,0.34,1.03,0.86,1.46,1.55c0.43,0.6,0.78,1.38,1.12,2.41
		c0.26,0.95,0.34,2.07,0.34,3.45s-0.09,2.5-0.34,3.53c-0.34,0.95-0.69,1.72-1.12,2.41c-0.43,0.6-0.86,1.12-1.46,1.46
		c-0.52,0.34-1.03,0.6-1.55,0.78c-0.6,0.17-1.12,0.26-1.55,0.26c-0.52,0-1.03-0.09-1.55-0.26c-0.6-0.17-1.12-0.43-1.64-0.78
		c-0.52-0.34-1.03-0.86-1.46-1.46c-0.43-0.69-0.78-1.46-1.03-2.41C130.04,122.21,129.87,121.09,129.87,119.72L129.87,119.72z"/>
	<path d="M89.88,135.05h9.48v-10.69h5c0.95,0,1.64,0.17,2.24,0.52c0.52,0.34,0.95,0.78,1.21,1.38c0.26,0.52,0.43,1.21,0.6,1.9
		c0.09,0.69,0.17,1.38,0.17,2.15c0.09,0.78,0.17,1.55,0.26,2.33c0.17,0.86,0.34,1.64,0.52,2.41h9.48c-0.26-0.34-0.34-0.69-0.52-1.12
		c-0.09-0.43-0.17-0.86-0.26-1.38c0-0.52-0.09-1.03-0.17-1.55c0-0.52,0-0.95-0.09-1.46c0-0.43,0-0.78,0-1.12
		c-0.17-1.21-0.43-2.41-0.78-3.45c-0.34-0.95-0.86-1.9-1.55-2.59c-0.6-0.69-1.38-1.21-2.24-1.55c0.78-0.26,1.46-0.69,2.07-1.21
		c0.6-0.6,1.03-1.21,1.46-1.9c0.34-0.69,0.6-1.38,0.78-2.15c0.26-0.86,0.34-1.64,0.34-2.41c0-1.46-0.34-2.67-0.86-3.79
		c-0.52-1.12-1.21-1.98-2.15-2.76c-0.95-0.69-1.98-1.29-3.19-1.64c-1.21-0.34-2.5-0.52-3.79-0.52H89.88V135.05z M99.36,111.7h4.39
		c1.21,0,2.15,0.17,2.84,0.34c0.69,0.26,1.12,0.6,1.38,1.03c0.34,0.52,0.43,1.03,0.43,1.64c0,0.69-0.09,1.29-0.34,1.64
		c-0.26,0.43-0.6,0.78-1.03,0.95s-0.86,0.34-1.38,0.43c-0.43,0-0.95,0.09-1.38,0.09h-4.91V111.7z"/>
	<path d="M59.81,135.05h9.39v-9.31h5.6c1.72,0,3.36-0.17,4.83-0.69c1.46-0.43,2.67-1.03,3.79-1.98c1.03-0.86,1.9-1.98,2.41-3.36
		c0.6-1.38,0.95-3.02,0.95-4.83c0-0.86-0.17-1.81-0.43-2.76c-0.17-0.95-0.6-1.9-1.12-2.76c-0.52-0.95-1.29-1.81-2.15-2.5
		c-0.86-0.78-1.9-1.38-3.19-1.81c-1.21-0.43-2.67-0.6-4.39-0.6H59.81V135.05z M69.2,112.31h4.22c0.52-0.09,1.12,0,1.64,0
		c0.52,0.09,1.03,0.17,1.46,0.43c0.34,0.17,0.69,0.43,0.95,0.86c0.26,0.43,0.34,0.95,0.34,1.64c0,0.78-0.17,1.38-0.43,1.81
		c-0.26,0.43-0.69,0.78-1.12,0.95c-0.52,0.26-1.03,0.34-1.64,0.43c-0.6,0-1.21,0.09-1.81,0.09H69.2V112.31z"/>
</g>
</svg>
