<?xml version="1.0" encoding="utf-8"?>
<!-- Generator: Adobe Illustrator 24.0.1, SVG Export Plug-In . SVG Version: 6.00 Build 0)  -->
<svg version="1.1" id="Vrstva_1" xmlns="http://www.w3.org/2000/svg" xmlns:xlink="http://www.w3.org/1999/xlink" x="0px" y="0px"
	 viewBox="0 0 283.46 283.46" style="enable-background:new 0 0 283.46 283.46;" xml:space="preserve">
<style type="text/css">
	.st0{fill:#F02137;}
</style>
<g>
	<path class="st0" d="M60.2,60.52h16.1c8.53,0,11.46,6.25,11.46,10.67c0,7.52-5.07,11.11-12.25,11.11h-5.69v9.45H60.2V60.52z
		 M69.82,74.87h3.72c2.45,0,5.12-0.13,5.12-3.32c0-2.84-2.19-3.02-4.55-3.02h-4.29V74.87z"/>
	<path class="st0" d="M89.93,60.52h18.33c5.42,0,10.19,3.02,10.19,8.92c0,3.24-1.49,6.65-4.68,7.83c2.62,1.01,4.24,3.89,4.59,7.78
		c0.13,1.49,0.13,5.34,1.05,6.69h-9.62c-0.48-1.57-0.66-3.19-0.79-4.81c-0.22-2.97-0.53-6.08-4.33-6.08h-5.12v10.89h-9.62V60.52z
		 M99.55,74.17h5.03c1.79,0,4.24-0.31,4.24-3.11c0-1.97-1.09-3.1-4.77-3.1h-4.51V74.17z"/>
	<path class="st0" d="M136.51,59.78c9.49,0,15.83,6.82,15.83,16.36S146,92.5,136.51,92.5c-9.49,0-15.83-6.82-15.83-16.36
		S127.02,59.78,136.51,59.78z M136.51,84.71c2.45,0,6.21-1.62,6.21-8.57c0-6.95-3.76-8.57-6.21-8.57c-2.45,0-6.21,1.62-6.21,8.57
		C130.3,83.09,134.06,84.71,136.51,84.71z"/>
	<path class="st0" d="M75.11,103.51c8.62,0.04,13.3,4.5,14.13,12.38h-9.36c-0.22-1.14-1.05-4.59-5.03-4.59
		c-4.51,0-5.95,4.37-5.95,8.57c0,4.2,1.44,8.57,5.95,8.57c3.24,0,4.46-2.23,5.07-5.21h9.45c0,6.3-5.12,12.99-14.26,12.99
		c-10.1,0-15.83-7.13-15.83-16.36C59.28,110.07,65.49,103.51,75.11,103.51z"/>
	<path class="st0" d="M92.29,104.25h18.33c5.42,0,10.19,3.02,10.19,8.92c0,3.24-1.49,6.65-4.68,7.83c2.62,1.01,4.24,3.89,4.59,7.79
		c0.13,1.49,0.13,5.34,1.05,6.69h-9.62c-0.48-1.57-0.66-3.19-0.79-4.81c-0.22-2.97-0.53-6.08-4.33-6.08h-5.12v10.89h-9.62V104.25z
		 M101.92,117.9h5.03c1.79,0,4.24-0.31,4.24-3.1c0-1.97-1.09-3.1-4.77-3.1h-4.51V117.9z"/>
	<path class="st0" d="M133.45,104.25h9.4l11.37,31.23h-9.97l-1.31-4.46h-9.93l-1.4,4.46h-9.67L133.45,104.25z M141.01,124.33
		l-2.8-9.62h-0.09l-3.02,9.62H141.01z"/>
	<path class="st0" d="M163.05,124.98c0,0.74,0.13,1.44,0.35,2.06c0.7,1.88,2.8,2.27,4.59,2.27c1.57,0,3.98-0.52,3.98-2.84
		c0-1.57-1.36-2.05-6.73-3.59c-4.94-1.4-10.58-2.76-10.58-9.05c0-7.22,6.17-10.32,12.6-10.32c6.78,0,12.81,2.62,13.03,10.19h-9.1
		c0.17-1.18-0.31-1.97-1.14-2.49c-0.83-0.57-1.84-0.79-2.84-0.79c-1.31,0-3.46,0.35-3.46,2.1c0.13,2.19,4.68,2.8,9.05,3.94
		c4.42,1.27,8.79,3.24,8.79,9.01c0,8.13-7.44,10.76-14.43,10.76c-3.5,0-13.73-1.27-13.73-11.24H163.05z"/>
	<path class="st0" d="M190.9,112.26h-8.75v-8h27.12v8h-8.75v23.22h-9.62V112.26z"/>
	<path class="st0" d="M212.16,104.25h9.62v31.23h-9.62V104.25z"/>
	<path class="st0" d="M60.24,147.98h9.84l9.1,16.71h0.09v-16.71h9.1v31.23H79l-9.58-17.06h-0.09v17.06h-9.1V147.98z"/>
	<path class="st0" d="M101.48,147.98h9.4l11.37,31.23h-9.97l-1.31-4.46h-9.93l-1.4,4.46h-9.67L101.48,147.98z M109.05,168.06
		l-2.8-9.62h-0.09l-3.02,9.62H109.05z"/>
	<path class="st0" d="M127.58,155.99h-8.75v-8h27.12v8h-8.75v23.22h-9.62V155.99z"/>
	<path class="st0" d="M148.84,147.98h9.62v31.23h-9.62V147.98z"/>
	<path class="st0" d="M177.22,147.24c9.49,0,15.83,6.82,15.83,16.36c0,9.53-6.34,16.36-15.83,16.36c-9.49,0-15.83-6.82-15.83-16.36
		C161.39,154.06,167.73,147.24,177.22,147.24z M177.22,172.17c2.45,0,6.21-1.62,6.21-8.57c0-6.95-3.76-8.57-6.21-8.57
		c-2.45,0-6.21,1.62-6.21,8.57C171.01,170.55,174.77,172.17,177.22,172.17z"/>
	<path class="st0" d="M196.06,147.98h9.84l9.1,16.71h0.09v-16.71h9.1v31.23h-9.36l-9.58-17.06h-0.09v17.06h-9.1V147.98z"/>
	<path d="M60.46,214.28h9.1v8.66h-9.1V214.28z"/>
	<path d="M87.66,190.97c8.62,0.04,13.3,4.51,14.13,12.38h-9.36c-0.22-1.14-1.05-4.59-5.03-4.59c-4.5,0-5.95,4.37-5.95,8.57
		s1.44,8.57,5.95,8.57c3.24,0,4.46-2.23,5.07-5.2h9.45c0,6.3-5.12,12.99-14.26,12.99c-10.1,0-15.83-7.13-15.83-16.36
		C71.83,197.53,78.04,190.97,87.66,190.97z"/>
	<path d="M119.72,190.97c9.49,0,15.83,6.82,15.83,16.36s-6.34,16.36-15.83,16.36c-9.49,0-15.83-6.82-15.83-16.36
		S110.22,190.97,119.72,190.97z M119.72,215.9c2.45,0,6.21-1.62,6.21-8.57s-3.76-8.57-6.21-8.57c-2.45,0-6.21,1.62-6.21,8.57
		S117.27,215.9,119.72,215.9z"/>
	<path d="M138.47,191.71h13.69l4.46,18.37h0.09l4.46-18.37h13.69v31.23h-9.1v-20.03h-0.09l-5.42,20.03h-7.17l-5.42-20.03h-0.09
		v20.03h-9.1V191.71z"/>
</g>
</svg>
